<mxfile host="65bd71144e">
    <diagram id="reNFfzvYnU8znsCgj5_y" name="ページ1">
        <mxGraphModel dx="1031" dy="676" grid="1" gridSize="10" guides="1" tooltips="1" connect="1" arrows="1" fold="1" page="1" pageScale="1" pageWidth="827" pageHeight="1169" background="#ffffff" math="0" shadow="0">
            <root>
                <mxCell id="0"/>
                <mxCell id="1" parent="0"/>
                <mxCell id="2" value="Docker-compose" style="swimlane;strokeColor=#1A1A1A;" vertex="1" parent="1">
                    <mxGeometry x="200" y="80" width="440" height="560" as="geometry"/>
                </mxCell>
                <mxCell id="3" value="nginx Container" style="swimlane;strokeColor=#1A1A1A;" vertex="1" parent="2">
                    <mxGeometry x="40" y="60" width="360" height="240" as="geometry"/>
                </mxCell>
                <mxCell id="7" value="nginx" style="shape=image;imageAspect=0;aspect=fixed;verticalLabelPosition=bottom;verticalAlign=top;strokeColor=#1A1A1A;image=https://msp.c.yimg.jp/images/v2/FUTi93tXq405grZVGgDqG8-iZuoaTgkJFJGjDp62X0j-8oqSvud9Isc9eL23vFvUmtNcwzh1QnEvaAAkw49d0cvDiGbxx_9r4b4Mic5G5lTjzSOG3VTjlLLFC4N1pKEiR7i33c-QnP9yVD1TdOniirXXjguw3pZieSf0kNLZsrNiX5TzEFASWE_zZTAdKykZgcjldUyeQ0DxEyIJi9SXrJPU8s7_mWe9u86yadG7_NW0nI6ee4a_3tnA9rMF3J0u48Ih4T9AaAW1YJxj3AI30Q==/NGINX-Plus-product-icon-RGB.svg?errorImage=false;fontColor=#1A1A1A;" vertex="1" parent="3">
                    <mxGeometry x="60" y="60" width="68.8" height="80" as="geometry"/>
                </mxCell>
                <mxCell id="13" value="wasmモジュール&lt;br&gt;配置フォルダ" style="sketch=0;pointerEvents=1;shadow=0;dashed=0;html=1;strokeColor=none;fillColor=#505050;labelPosition=center;verticalLabelPosition=bottom;verticalAlign=top;outlineConnect=0;align=center;shape=mxgraph.office.concepts.folder;labelBackgroundColor=#FFFFFF;fontColor=#1A1A1A;" vertex="1" parent="3">
                    <mxGeometry x="250" y="70" width="60" height="60" as="geometry"/>
                </mxCell>
                <mxCell id="14" style="edgeStyle=none;html=1;strokeColor=#1A1A1A;strokeWidth=3;" edge="1" parent="3" source="7" target="13">
                    <mxGeometry relative="1" as="geometry">
                        <mxPoint x="120" y="110" as="sourcePoint"/>
                        <mxPoint x="70" y="110" as="targetPoint"/>
                    </mxGeometry>
                </mxCell>
                <mxCell id="15" value="&lt;span style=&quot;background-color: rgb(255 , 255 , 255)&quot;&gt;wasmパス&lt;/span&gt;" style="edgeLabel;html=1;align=center;verticalAlign=middle;resizable=0;points=[];fontColor=#1A1A1A;" vertex="1" connectable="0" parent="14">
                    <mxGeometry x="0.0759" y="-3" relative="1" as="geometry">
                        <mxPoint y="7" as="offset"/>
                    </mxGeometry>
                </mxCell>
                <mxCell id="4" value="Vue Container" style="swimlane;strokeColor=#1A1A1A;" vertex="1" parent="2">
                    <mxGeometry x="40" y="320" width="200" height="200" as="geometry"/>
                </mxCell>
                <mxCell id="10" value="開発モード" style="shape=image;imageAspect=0;aspect=fixed;verticalLabelPosition=bottom;verticalAlign=top;strokeColor=#1A1A1A;image=https://msp.c.yimg.jp/images/v2/FUTi93tXq405grZVGgDqGw4TnDFfufXiLRzfA1zHoZsvOi3QOq3fpVatUwjNJts8UlGFV7DmyryzxkDliDfjs0qCodVbi9ubi1qxbJSWBIo1vjP8DkgktyXLtBZ_HySXEqQ1yJrGYWzclDHNUs5NTQ==/logo.png?errorImage=false;fontColor=#1A1A1A;" vertex="1" parent="4">
                    <mxGeometry x="54.4" y="70" width="80" height="80" as="geometry"/>
                </mxCell>
                <mxCell id="11" style="edgeStyle=none;html=1;strokeColor=#1A1A1A;strokeWidth=3;" edge="1" parent="2" target="10">
                    <mxGeometry relative="1" as="geometry">
                        <mxPoint x="134" y="230" as="sourcePoint"/>
                        <mxPoint x="110" y="170" as="targetPoint"/>
                    </mxGeometry>
                </mxCell>
                <mxCell id="12" value="&lt;span style=&quot;background-color: rgb(255 , 255 , 255)&quot;&gt;wasmi以外のパス&lt;/span&gt;" style="edgeLabel;html=1;align=center;verticalAlign=middle;resizable=0;points=[];fontColor=#1A1A1A;" vertex="1" connectable="0" parent="11">
                    <mxGeometry x="-0.45" y="1" relative="1" as="geometry">
                        <mxPoint as="offset"/>
                    </mxGeometry>
                </mxCell>
                <mxCell id="6" value="Client" style="sketch=0;outlineConnect=0;fontColor=#232F3E;gradientColor=none;strokeColor=#232F3E;fillColor=#ffffff;dashed=0;verticalLabelPosition=bottom;verticalAlign=top;align=center;html=1;fontSize=12;fontStyle=0;aspect=fixed;shape=mxgraph.aws4.resourceIcon;resIcon=mxgraph.aws4.client;" vertex="1" parent="1">
                    <mxGeometry x="80" y="200" width="80" height="80" as="geometry"/>
                </mxCell>
                <mxCell id="8" value="" style="endArrow=classic;html=1;" edge="1" parent="1">
                    <mxGeometry width="50" height="50" relative="1" as="geometry">
                        <mxPoint x="390" y="370" as="sourcePoint"/>
                        <mxPoint x="440" y="320" as="targetPoint"/>
                    </mxGeometry>
                </mxCell>
                <mxCell id="9" style="edgeStyle=none;html=1;strokeColor=#1A1A1A;entryX=0;entryY=0.5;entryDx=0;entryDy=0;strokeWidth=3;" edge="1" parent="1" source="6" target="7">
                    <mxGeometry relative="1" as="geometry">
                        <mxPoint x="150" y="350" as="targetPoint"/>
                    </mxGeometry>
                </mxCell>
                <mxCell id="18" value="" style="edgeStyle=none;html=1;fontColor=#1A1A1A;strokeColor=#1A1A1A;strokeWidth=3;" edge="1" parent="1" source="16" target="13">
                    <mxGeometry relative="1" as="geometry">
                        <mxPoint x="730" y="350" as="targetPoint"/>
                    </mxGeometry>
                </mxCell>
                <mxCell id="16" value="wasmモジュール&lt;br&gt;ホスト側マウント元" style="sketch=0;pointerEvents=1;shadow=0;dashed=0;html=1;strokeColor=none;fillColor=#505050;labelPosition=center;verticalLabelPosition=bottom;verticalAlign=top;outlineConnect=0;align=center;shape=mxgraph.office.concepts.folder;labelBackgroundColor=#FFFFFF;fontColor=#1A1A1A;" vertex="1" parent="1">
                    <mxGeometry x="700" y="210" width="60" height="60" as="geometry"/>
                </mxCell>
            </root>
        </mxGraphModel>
    </diagram>
</mxfile>